<svg id="svg" version="1.1" xmlns="http://www.w3.org/2000/svg" viewBox="0 0 400 400" style="display: block;"><path d="M0 0 C132 0 264 0 400 0 C400 132 400 264 400 400 C268 400 136 400 0 400 C0 268 0 136 0 0 Z " transform="translate(0,0)" style="fill: #30312E;"/><path d="M0 0 C1.08190878 -0.00445784 2.16381757 -0.00891569 3.27851146 -0.01350862 C5.0682529 -0.01323207 5.0682529 -0.01323207 6.89415073 -0.01294994 C8.158232 -0.01662663 9.42231327 -0.02030332 10.72470003 -0.02409142 C14.24064566 -0.03411518 17.75657421 -0.03782884 21.27253211 -0.04048073 C25.06211773 -0.04438284 28.85168983 -0.05396145 32.64126682 -0.0626936 C41.79847626 -0.08246377 50.95568682 -0.09252629 60.11291227 -0.10142139 C64.42639144 -0.1058046 68.73986939 -0.11117144 73.05334759 -0.11641026 C87.39560122 -0.13342538 101.73785409 -0.1479181 116.08011627 -0.155159 C119.80276013 -0.15706887 123.52540399 -0.1589892 127.24804783 -0.16094494 C128.17328479 -0.16142868 129.09852176 -0.16191242 130.05179621 -0.16241082 C145.02971207 -0.1707056 160.00754792 -0.19603192 174.98542886 -0.22852562 C190.36731219 -0.26162321 205.7491549 -0.27961032 221.13107401 -0.28280324 C229.76555881 -0.28496616 238.39992704 -0.29368255 247.0343771 -0.31926441 C254.39052424 -0.34100858 261.7465265 -0.34900372 269.10270213 -0.33929763 C272.85309137 -0.33476324 276.60318196 -0.33658834 280.35352993 -0.35605907 C284.42847645 -0.37703126 288.50276524 -0.36667215 292.57774448 -0.35352612 C293.75082895 -0.36449536 294.92391341 -0.37546461 296.13254589 -0.38676625 C308.75392735 -0.28878831 319.72165026 3.44642747 328.963624 12.16937733 C336.73242261 20.38749078 340.93586385 28.84614825 340.92762852 40.1450243 C340.92891015 41.20370736 340.92891015 41.20370736 340.93021768 42.28377795 C340.93186458 44.64833952 340.92636405 47.01283011 340.92089939 49.37738514 C340.92061732 51.07253486 340.92077564 52.76768471 340.9213419 54.46283436 C340.9216291 59.06576716 340.9157447 63.66867397 340.90876794 68.27160072 C340.9025217 73.0815801 340.90192959 77.89156005 340.90074253 82.70154285 C340.89763297 91.81040219 340.88942462 100.91924954 340.87939304 110.02810359 C340.86822028 120.39800951 340.86271852 130.767916 340.85769761 141.13782644 C340.84724171 162.46996468 340.8296495 183.80209212 340.807374 205.13422108 C338.10844179 202.59043707 336.93403532 200.43604596 335.619874 196.94672108 C335.27569431 196.04566639 334.93151463 195.1446117 334.57690525 194.21625233 C334.32295994 193.52918201 334.06901463 192.8421117 333.807374 192.13422108 C333.78231785 193.19745594 333.7572617 194.2606908 333.73144627 195.35614491 C333.63634317 199.35021824 333.53638601 203.34415861 333.43505955 207.3380785 C333.39209543 209.05744761 333.35039863 210.77684892 333.31005955 212.49628162 C333.09231112 221.74118076 332.86404994 230.93789908 331.807374 240.13422108 C331.477374 240.13422108 331.147374 240.13422108 330.807374 240.13422108 C330.21943282 229.81397698 329.79682569 219.4956223 329.55346775 209.16156483 C329.52235653 207.85278622 329.52235653 207.85278622 329.4906168 206.51756763 C329.38662101 202.07993059 329.28965057 197.64224264 329.20019627 193.20428944 C329.16311453 191.54291005 329.12592828 189.88153299 329.088624 188.22015858 C329.07508381 187.44909275 329.06154362 186.67802692 329.04759312 185.88359547 C328.97335581 182.72205018 328.81412579 180.15447644 327.807374 177.13422108 C327.65290258 175.595228 327.53272326 174.05268832 327.432374 172.50922108 C326.95438245 166.70393666 325.95628567 161.05747794 324.89160252 155.33832264 C324.18233066 151.47082445 323.62682389 147.68867424 323.369874 143.75922108 C322.76346327 136.51941947 320.03454704 129.05013912 315.807374 123.13422108 C314.817374 123.13422108 313.827374 123.13422108 312.807374 123.13422108 C311.71380882 126.41491662 311.61050561 128.98628485 311.51025486 132.44159412 C311.4503059 134.39327755 311.4503059 134.39327755 311.38914585 136.38438892 C311.35007298 137.80490323 311.31109929 139.22542027 311.27221775 140.64593983 C311.22920199 142.09897995 311.18578539 143.55200826 311.14198399 145.00502491 C311.02784364 148.82715637 310.91915114 152.64942411 310.81158543 156.47174549 C310.70083591 160.37300598 310.5849445 164.27411332 310.46948338 168.1752367 C310.24374236 175.82809076 310.02375537 183.48109605 309.807374 191.13422108 C309.477374 191.13422108 309.147374 191.13422108 308.807374 191.13422108 C307.9855046 181.21712712 307.70184793 171.33294151 307.5964365 161.38422108 C307.58215611 160.15268299 307.56787571 158.92114491 307.55316257 157.65228748 C307.49530853 152.50551252 307.44060627 147.35884765 307.40600681 142.2118578 C307.37839246 138.4148841 307.33258462 134.61847582 307.2839365 130.82172108 C307.2790572 129.08873768 307.2790572 129.08873768 307.27407932 127.32074451 C307.13123445 117.93136415 305.70383573 111.03068281 298.807374 104.13422108 C295.0052542 101.14086515 290.97028571 99.17672051 285.99096775 99.41937733 C280.97996201 101.0598318 277.25649298 105.29795608 273.807374 109.13422108 C273.07389744 109.93730701 272.34042088 110.74039295 271.58471775 111.56781483 C268.78513968 117.18542973 268.89475492 122.87026991 268.619874 129.07172108 C268.54633812 130.44328946 268.47152805 131.81479005 268.39550877 133.18622303 C267.80127086 144.32485823 267.43093991 155.47753466 267.14843845 166.62811756 C266.95202084 174.162172 266.52648371 181.63148099 265.807374 189.13422108 C265.477374 189.13422108 265.147374 189.13422108 264.807374 189.13422108 C264.77645161 188.0445277 264.77645161 188.0445277 264.74490452 186.93282032 C264.54700702 180.00657664 264.34174634 173.08058384 264.12869549 166.15479088 C264.01947318 162.59619595 263.91286657 159.03756703 263.81274509 155.4787035 C264.01993651 128.73211515 264.01993651 128.73211515 257.807374 103.13422108 C257.147374 102.80422108 256.487374 102.47422108 255.807374 102.13422108 C255.147374 124.24422108 254.487374 146.35422108 253.807374 169.13422108 C253.147374 169.13422108 252.487374 169.13422108 251.807374 169.13422108 C251.78231785 167.95730701 251.7572617 166.78039295 251.73144627 165.56781483 C251.06140807 133.84157476 251.06140807 133.84157476 249.807374 102.13422108 C246.95799201 101.51685498 244.68050925 101.03342742 241.807374 101.13422108 C237.06238172 104.79442071 236.71725751 110.2377361 235.807374 115.82172108 C234.48182972 123.00783599 233.1824048 129.59390715 229.807374 136.13422108 C229.46931736 136.79132069 229.13126072 137.4484203 228.78295994 138.12543201 C224.85778789 145.67132156 220.9810367 153.07749975 215.432374 159.57172108 C211.36112515 164.33925997 209.59185585 169.18594825 207.807374 175.13422108 C207.22803021 176.86472849 206.64501158 178.59401242 206.057374 180.32172108 C205.63912698 181.59203517 205.22180927 182.86265831 204.807374 184.13422108 C204.147374 184.13422108 203.487374 184.13422108 202.807374 184.13422108 C201.55346775 182.52484608 201.55346775 182.52484608 200.244874 180.38422108 C199.81045994 179.68812733 199.37604588 178.99203358 198.92846775 178.27484608 C197.807374 176.13422108 197.807374 176.13422108 196.807374 172.13422108 C196.477374 176.42422108 196.147374 180.71422108 195.807374 185.13422108 C195.477374 185.13422108 195.147374 185.13422108 194.807374 185.13422108 C194.477374 177.54422108 194.147374 169.95422108 193.807374 162.13422108 C192.74154531 178.1216514 192.27939353 194.12046531 191.807374 210.13422108 C191.147374 210.46422108 190.487374 210.79422108 189.807374 211.13422108 C189.147374 190.01422108 188.487374 168.89422108 187.807374 147.13422108 C187.0053074 157.96340616 187.0053074 157.96340616 186.51025486 168.7821703 C186.48077511 169.75084034 186.48077511 169.75084034 186.45069981 170.73907948 C186.38846821 172.80561889 186.33027242 174.87224803 186.27221775 176.93890858 C186.22906088 178.39864309 186.18564457 179.85836995 186.14198399 181.31808949 C186.02928152 185.10886044 185.92003742 188.89972294 185.81158543 192.69061756 C185.69969545 196.57943397 185.5844354 200.46815045 185.46948338 204.35687733 C185.24553568 211.94923288 185.02525202 219.54168865 184.807374 227.13422108 C184.147374 227.13422108 183.487374 227.13422108 182.807374 227.13422108 C182.77645161 225.81807819 182.77645161 225.81807819 182.74490452 224.47534657 C182.54613593 216.06626126 182.34079909 207.65736468 182.12869549 199.24860477 C182.0199561 194.92913819 181.91346125 190.60964449 181.81274509 186.2899828 C181.14725275 157.8733255 179.98460955 129.74525107 175.83056736 101.58124256 C175.36026688 98.38135496 174.91019325 95.17902381 174.46167088 91.97601795 C174.16270831 89.89967762 173.86262235 87.82349865 173.56128025 85.74750233 C173.42992176 84.80997623 173.29856327 83.87245014 173.16322422 82.90651417 C171.8454804 72.62709328 171.8454804 72.62709328 166.682374 64.07172108 C162.68613356 62.76859919 158.97242685 62.88921797 154.807374 63.13422108 C154.518624 63.87672108 154.229874 64.61922108 153.932374 65.38422108 C152.807374 68.13422108 152.807374 68.13422108 151.744874 70.07172108 C149.15825196 75.76228957 149.62739044 82.32493084 149.56128025 88.45062733 C149.529466 90.57473467 149.49747544 92.69883938 149.46533298 94.82294178 C149.44993473 95.94318745 149.43453648 97.06343311 149.41867161 98.21762562 C149.12523341 119.1387234 148.56715989 140.0398104 147.744874 160.94672108 C147.69871952 162.12098652 147.65256504 163.29525196 147.60501194 164.5051012 C147.34616575 171.04843588 147.08086508 177.59148222 146.807374 184.13422108 C146.147374 184.13422108 145.487374 184.13422108 144.807374 184.13422108 C144.147374 148.49422108 143.487374 112.85422108 142.807374 76.13422108 C141.817374 76.62922108 141.817374 76.62922108 140.807374 77.13422108 C139.85989972 80.58363772 139.6627447 83.91174156 139.60205173 87.47528553 C139.58210651 88.51598698 139.56216129 89.55668842 139.54161167 90.62892628 C139.52489918 91.74055637 139.50818668 92.85218647 139.49096775 93.99750233 C139.4597961 95.71818172 139.4597961 95.71818172 139.42799473 97.47362232 C139.36270782 101.13126206 139.30371114 104.78897246 139.244874 108.44672108 C139.20166896 110.92915021 139.15805403 113.41157224 139.11401463 115.8939867 C139.00704778 121.97399053 138.90524286 128.05406436 138.807374 134.13422108 C138.147374 134.13422108 137.487374 134.13422108 136.807374 134.13422108 C136.807374 119.28422108 136.807374 104.43422108 136.807374 89.13422108 C127.23931871 95.5129246 123.57374448 103.27585984 120.807374 114.13422108 C119.90478328 119.32348563 119.90827127 124.57368198 119.85180759 129.82758045 C119.78561567 134.75342376 119.64483616 139.67685634 119.50956821 144.60121632 C119.39708527 148.69630557 119.28939407 152.7912699 119.19873142 156.88690662 C119.00341894 165.3361896 118.6580604 173.71923948 117.807374 182.13422108 C117.477374 182.13422108 117.147374 182.13422108 116.807374 182.13422108 C116.147374 161.01422108 115.487374 139.89422108 114.807374 118.13422108 C110.8070183 127.32836406 110.8070183 127.32836406 108.07690525 136.57953358 C107.83230564 137.66597157 107.58770603 138.75240955 107.33569431 139.87176991 C107.09947361 140.98962879 106.86325291 142.10748768 106.619874 143.25922108 C106.23653904 145.04332386 106.23653904 145.04332386 105.84545994 146.86346912 C103.43506615 158.39725031 102.12385144 169.6788654 101.42846775 181.42718983 C101.28486418 183.82958921 101.14028917 186.23193067 100.994874 188.63422108 C100.92051121 189.86882069 100.84614841 191.1034203 100.7695322 192.37543201 C99.9928264 204.19658696 98.66327883 215.93705727 97.244874 227.69672108 C97.13291691 228.628391 97.02095982 229.56006092 96.90561008 230.51996326 C96.58360047 233.18482167 96.25738389 235.84911317 95.92846775 238.51312733 C95.83059971 239.31082035 95.73273167 240.10851337 95.63189793 240.93037891 C95.26675735 243.83451891 94.89600918 246.71347055 94.29238987 249.57884693 C93.81841281 252.07606157 93.61176156 254.42973383 93.50634861 256.96722889 C93.46667469 257.9012151 93.42700077 258.8352013 93.38612461 259.79749012 C93.34853535 260.80064259 93.31094608 261.80379505 93.27221775 262.83734608 C93.23047932 263.89254444 93.18874088 264.94774281 93.14573765 266.03491688 C92.85847668 273.70750992 92.68189249 281.37923281 92.56128025 289.05609608 C92.54455265 290.11405384 92.52782505 291.1720116 92.51059055 292.26202869 C92.44466879 296.57988358 92.38151326 300.8977038 92.33056736 305.21576405 C92.29106045 308.43356617 92.23962659 311.65099781 92.18628025 314.86859608 C92.1778661 315.84447681 92.16945194 316.82035755 92.16078281 317.82581043 C92.14414082 318.72906055 92.12749882 319.63231068 92.11035252 320.56293201 C92.09489132 321.74674458 92.09489132 321.74674458 92.07911777 322.95447254 C91.77715989 325.37657862 91.01279543 327.02788798 89.807374 329.13422108 C89.78897968 328.30895924 89.77058537 327.4836974 89.75163364 326.63342762 C89.57478737 318.80780338 89.38479864 310.98262776 89.18050766 303.15767002 C89.07596245 299.13598566 88.97627807 295.11430992 88.88818455 291.09222889 C88.80278086 287.20149681 88.70397944 283.31130341 88.59636974 279.42112446 C88.55783585 277.94630046 88.52391062 276.47134767 88.49495602 274.99630451 C88.47220262 259.52200987 88.47220262 259.52200987 82.557374 245.63422108 C75.86419875 239.54951631 70.68754725 238.45538467 61.807374 238.13422108 C60.50906063 248.67219796 60.46938362 259.24201612 60.25512791 269.8446703 C60.20296315 272.36054286 60.14591362 274.87627329 60.088624 277.39203358 C60.07504856 278.15057636 60.06147312 278.90911915 60.04748631 279.69064808 C59.9354455 284.56908001 59.48256984 289.30055695 58.807374 294.13422108 C58.477374 294.13422108 58.147374 294.13422108 57.807374 294.13422108 C56.92251744 272.78940987 56.67921537 251.4953081 56.807374 230.13422108 C56.147374 230.13422108 55.487374 230.13422108 54.807374 230.13422108 C51.36803721 222.37288583 48.51674979 214.54173233 45.95141697 206.45502186 C44.87408194 203.10814031 43.81426186 200.14693713 42.13159275 197.04047108 C40.50329091 193.46685288 40.57207216 190.91201394 40.744874 187.00922108 C41.10857027 182.46463732 41.10857027 182.46463732 39.81909275 178.25140858 C38.16120611 174.78200874 38.60072545 171.17145765 38.682374 167.38422108 C38.69139744 166.59144764 38.70042088 165.7986742 38.70971775 164.98187733 C38.73320388 163.03252826 38.76907263 161.08333533 38.807374 159.13422108 C38.23116306 158.87383045 37.65495213 158.61343983 37.06128025 158.34515858 C34.64507305 157.04702299 32.79942921 155.57229677 30.744874 153.75922108 C30.07327244 153.1739867 29.40167088 152.58875233 28.70971775 151.98578358 C26.807374 150.13422108 26.807374 150.13422108 25.37378025 147.90765858 C23.93561013 145.90248986 23.93561013 145.90248986 21.47338963 145.75218678 C17.8034678 146.27807868 16.85912929 147.5831277 14.58471775 150.47333241 C9.20209642 158.40920592 9.49859874 166.44615974 9.369874 175.70843983 C9.31737848 177.48643946 9.26149447 179.26434196 9.20239353 181.04213428 C9.05700625 185.6858443 8.95721028 190.32941979 8.86737156 194.97449207 C8.76719602 199.7283973 8.62325173 204.48096387 8.48315525 209.23383045 C8.21541703 218.53317102 7.99590044 227.8329607 7.807374 237.13422108 C7.477374 237.13422108 7.147374 237.13422108 6.807374 237.13422108 C5.83908957 231.38674734 5.61204735 225.77279487 5.526124 219.95062733 C5.50771458 218.97746067 5.48930515 218.00429401 5.47033787 217.00163746 C5.41192716 213.90005675 5.35906497 210.79842055 5.307374 207.69672108 C5.08370412 194.48242968 4.79999117 181.31651442 3.807374 168.13422108 C2.817374 168.13422108 1.827374 168.13422108 0.807374 168.13422108 C0.17974945 169.36204969 -0.44458665 170.59155944 -1.067626 171.82172108 C-1.41567287 172.50621326 -1.76371975 173.19070545 -2.1223135 173.89593983 C-2.47551662 174.63457264 -2.82871975 175.37320545 -3.192626 176.13422108 C-3.53616116 176.79228748 -3.87969631 177.45035389 -4.23364162 178.1283617 C-5.6448266 182.55160747 -5.55104018 186.84858184 -5.6066885 191.46625233 C-5.62605465 192.45799961 -5.6454208 193.44974689 -5.6653738 194.47154713 C-5.72501053 197.62985177 -5.77149155 200.78819318 -5.817626 203.94672108 C-5.85582039 206.091919 -5.89487298 208.23710183 -5.9348135 210.38226795 C-6.03069892 215.6327847 -6.11579278 220.88339284 -6.192626 226.13422108 C-6.852626 226.13422108 -7.512626 226.13422108 -8.192626 226.13422108 C-8.687626 211.77922108 -8.687626 211.77922108 -9.192626 197.13422108 C-9.43496975 199.18640858 -9.6773135 201.23859608 -9.927001 203.35297108 C-13.3055075 231.41556935 -13.3055075 231.41556935 -17.192626 244.13422108 C-17.45301662 245.1061742 -17.71340725 246.07812733 -17.9816885 247.07953358 C-21.59938142 259.48788219 -28.33031218 271.89270273 -36.192626 282.13422108 C-36.522626 282.13422108 -36.852626 282.13422108 -37.192626 282.13422108 C-37.28393455 250.45593744 -37.35469468 218.77769134 -37.39688732 187.0993068 C-37.40188997 183.35687567 -37.40706727 179.61444479 -37.41235256 175.87201405 C-37.4134018 175.12698346 -37.41445105 174.38195287 -37.41553208 173.6143456 C-37.43292329 161.56098878 -37.46445387 149.5077085 -37.50123718 137.45439704 C-37.5386824 125.08071774 -37.56086941 112.70707845 -37.56897998 100.33334482 C-37.57446035 92.70197739 -37.59175098 85.07082633 -37.62429187 77.43952553 C-37.64799415 71.58154963 -37.65043681 65.72368395 -37.64505672 59.86565876 C-37.6461556 57.46713525 -37.65409123 55.06860342 -37.6694479 52.67012882 C-37.68942222 49.38903197 -37.68453733 46.10885222 -37.67364407 42.82773304 C-37.68529543 41.88412438 -37.6969468 40.94051572 -37.70895123 39.96831286 C-37.60315754 28.13576187 -32.36819005 19.51520929 -24.31371975 11.19281483 C-17.62921608 4.94044069 -9.30249392 0.01775495 0 0 Z " transform="translate(48.192625999450684,10.865778923034668)" style="fill: #EDDC3D;"/><path d="M0 0 C1.04220703 -0.01836914 1.04220703 -0.01836914 2.10546875 -0.03710938 C10.59478161 -0.06109048 16.62347535 2.97889218 23.125 8.1875 C24.96420616 10.17518374 25.91599187 11.71452882 27.125 14.1875 C25.8307529 18.07024131 24.23230577 18.71440748 20.8125 20.875 C19.84699219 21.49761719 18.88148438 22.12023437 17.88671875 22.76171875 C15.125 24.1875 15.125 24.1875 11.125 24.1875 C8.4375 21.75 8.4375 21.75 6.125 19.1875 C4.55558802 17.61808802 2.98365006 17.9425153 0.8125 17.875 C-2.43681353 17.9215666 -3.62943054 18.03177303 -6.4375 19.8125 C-8.34043651 22.95648205 -8.5396293 24.56896271 -7.875 28.1875 C-3.43565462 34.25460536 3.91310026 36.73813934 10.5703125 39.7421875 C20.37121801 44.33570045 28.94296285 49.71334009 33.125 60.1875 C33.40992869 62.93343041 33.54653306 65.39247517 33.5 68.125 C33.51160156 68.80240234 33.52320313 69.47980469 33.53515625 70.17773438 C33.49265912 77.5651522 30.84057634 83.19624186 25.91796875 88.6171875 C17.16640687 96.28195412 4.12692653 96.88671453 -6.875 96.1875 C-10.6875 95.375 -10.6875 95.375 -13.875 94.1875 C-14.49503906 94.02765625 -15.11507813 93.8678125 -15.75390625 93.703125 C-23.29751286 91.51828395 -28.61248298 85.58127553 -32.875 79.1875 C-32.875 77.8675 -32.875 76.5475 -32.875 75.1875 C-30.79464126 73.4859349 -28.91196044 72.16900544 -26.625 70.8125 C-26.03847656 70.43222656 -25.45195312 70.05195313 -24.84765625 69.66015625 C-23.109375 68.6015625 -23.109375 68.6015625 -19.875 67.1875 C-16.74837022 68.02867451 -16.01004132 69.00589271 -14.0625 71.625 C-10.54072768 75.75050472 -7.17323578 76.96499176 -1.9296875 77.47265625 C3.73088602 77.63259875 7.41811078 77.62135157 12.125 74.1875 C13.56930855 71.29888291 13.50188506 69.39102299 13.125 66.1875 C8.24429 59.45548621 -0.47671732 56.0087556 -8.0625 53.1875 C-16.36562566 49.97678263 -22.21122304 44.75605154 -26.875 37.1875 C-28.93798364 30.99854909 -29.16813154 21.38929619 -26.75 15.1875 C-22.47660355 8.35006568 -17.99220553 3.28681372 -10.15625 0.59765625 C-6.77951488 -0.00946222 -3.4189839 0.00313668 0 0 Z " transform="translate(321.875,258.8125)" style="fill: #ECDA3D;"/><path d="M0 0 C6.6 0 13.2 0 20 0 C20.02263244 9.00597058 20.04096219 18.01192213 20.05181217 27.01791477 C20.05702078 31.20018639 20.06408157 35.38243747 20.07543945 39.56469727 C20.08634037 43.60417316 20.09229206 47.64362935 20.09487724 51.68311882 C20.09671853 53.22080737 20.10031405 54.75849489 20.10573006 56.296175 C20.11303621 58.45732034 20.11398693 60.61838523 20.11352539 62.77954102 C20.115746 64.00753922 20.11796661 65.23553741 20.12025452 66.50074768 C19.80309454 75.72969662 17.60307922 82.95223041 10.75 89.375 C2.52330382 95.70322783 -6.93051483 95.96421621 -17 95 C-25.60081905 92.89674294 -33.15299038 86.27051443 -38 79 C-38 78.01 -38 77.02 -38 76 C-35.73595458 74.63319847 -33.46498979 73.28155555 -31.1875 71.9375 C-30.54490234 71.54755859 -29.90230469 71.15761719 -29.24023438 70.75585938 C-27.5371085 69.75869241 -25.77054142 68.87187313 -24 68 C-19.99245833 69.33584722 -18.62523764 71.76893828 -16 75 C-13.67313547 76.16343227 -12.15278587 76.19895988 -9.5625 76.25 C-8.78003906 76.27578125 -7.99757812 76.3015625 -7.19140625 76.328125 C-4.46322502 75.91962728 -3.6558389 75.16727539 -2 73 C-0.85534162 69.56602485 -0.84020593 66.85638646 -0.79467773 63.23364258 C-0.78477814 62.55045456 -0.77487854 61.86726654 -0.76467896 61.16337585 C-0.73311321 58.90712947 -0.7083261 56.65086203 -0.68359375 54.39453125 C-0.66301996 52.82939611 -0.64202338 51.26426648 -0.62062073 49.69914246 C-0.56544391 45.58102884 -0.51601529 41.46286544 -0.46777344 37.34466553 C-0.41752635 33.14184136 -0.36185703 28.93908942 -0.30664062 24.73632812 C-0.19911272 16.49094485 -0.09815696 8.24550016 0 0 Z " transform="translate(258,260)" style="fill: #EAD93D;"/><path d="M0 0 C0.66 0 1.32 0 2 0 C2.89912415 10.35447522 3.14860291 20.59967868 3.1328125 30.984375 C3.13348849 32.57708755 3.13446096 34.1698 3.13571167 35.76251221 C3.13717306 39.07361855 3.13508371 42.38469764 3.13037109 45.69580078 C3.12465594 49.91388985 3.12797404 54.1319155 3.13394356 58.35000229 C3.13757559 61.62903309 3.13639881 64.90804911 3.13381577 68.18708038 C3.13315477 69.74182391 3.13394555 71.29656884 3.13629532 72.85131073 C3.14585847 80.94856197 3.06970944 88.95987168 2 97 C1.34 97 0.68 97 0 97 C-1.15229878 87.84111279 -1.1458709 78.74352652 -1.1328125 69.53125 C-1.13348761 67.84313951 -1.13445936 66.15502911 -1.13571167 64.46691895 C-1.13717888 60.94359402 -1.13506565 57.4202946 -1.13037109 53.89697266 C-1.12467442 49.40524515 -1.12795867 44.91357743 -1.13394356 40.42185211 C-1.13757563 36.94036416 -1.13639847 33.45889013 -1.13381577 29.97740173 C-1.13315381 28.32217908 -1.13394904 26.66695513 -1.13629532 25.01173401 C-1.1455873 16.61632652 -1.0499523 8.34540039 0 0 Z " transform="translate(79,228)" style="fill: #CCBD3A;"/><path d="M0 0 C0.66 0 1.32 0 2 0 C3.09587056 4.41944698 3.14135161 8.73548659 3.12939453 13.25927734 C3.13114685 14.07781693 3.13289917 14.89635651 3.13470459 15.73970032 C3.13909614 18.43846779 3.13619405 21.13716939 3.1328125 23.8359375 C3.13348644 25.71774305 3.13445723 27.59954851 3.13571167 29.48135376 C3.1371851 33.42377553 3.13504594 37.36617462 3.13037109 41.30859375 C3.12468188 46.35117085 3.12794995 51.39369463 3.13394356 56.43626976 C3.13756542 60.32254433 3.13640297 64.20880637 3.13381577 68.09508133 C3.13315059 69.95374177 3.13396057 71.81240337 3.13629532 73.67106247 C3.13884766 76.27471661 3.13494462 78.87828574 3.12939453 81.48193359 C3.13141876 82.24372421 3.13344299 83.00551483 3.13552856 83.79039001 C3.11783677 88.2926663 2.73650934 92.55677292 2 97 C1.34 97 0.68 97 0 97 C-0.80956619 81.0481351 -1.1596628 65.13373266 -1.13037109 49.16186523 C-1.12497653 45.67231969 -1.13037723 42.18290125 -1.13671875 38.69335938 C-1.14013992 25.76236198 -0.85950663 12.90336782 0 0 Z " transform="translate(335,151)" style="fill: #CCBD3A;"/><path d="M0 0 C0.99 0 1.98 0 3 0 C3 32.01 3 64.02 3 97 C2.01 97 1.02 97 0 97 C0 64.99 0 32.98 0 0 Z " transform="translate(210,132)" style="fill: #D5C63B;"/><path d="M0 0 C0.66 0 1.32 0 2 0 C3.01049485 3.35157803 3.12673458 6.40250148 3.12939453 9.89501953 C3.13412277 11.67804977 3.13412277 11.67804977 3.13894653 13.49710083 C3.1369223 14.77938568 3.13489807 16.06167053 3.1328125 17.3828125 C3.1334869 18.72077451 3.13445806 20.0587364 3.13571167 21.396698 C3.13718529 24.20262823 3.13504691 27.00852661 3.13037109 29.81445312 C3.1247071 33.38489418 3.12793366 36.9552595 3.13394356 40.52569771 C3.13758663 43.29176384 3.13639296 46.05781254 3.13381577 48.82387924 C3.13283661 50.77232666 3.13584128 52.72077478 3.13894653 54.66921997 C3.12109249 61.50914242 2.86043156 68.21160589 2 75 C1.34 75 0.68 75 0 75 C0 50.25 0 25.5 0 0 Z " transform="translate(186,187)" style="fill: #CEBF3A;"/></svg>